<svg width="20" height="21" viewBox="0 0 20 21" fill="none" xmlns="http://www.w3.org/2000/svg">
<path fill-rule="evenodd" clip-rule="evenodd" d="M11.3272 19.5057C11.8544 20 12.7029 20 14.4 20C16.097 20 16.9456 20 17.4727 19.5057C18 19.0115 18 18.216 18 16.625C18 15.034 18 14.2385 17.4727 13.7443C16.9456 13.25 16.097 13.25 14.4 13.25C12.7029 13.25 11.8544 13.25 11.3272 13.7443C10.8 14.2385 10.8 15.034 10.8 16.625C10.8 18.216 10.8 19.0115 11.3272 19.5057ZM13.8 16.0625H12.7999C12.4686 16.0625 12.2 16.3143 12.2 16.625C12.2 16.9357 12.4686 17.1875 12.7999 17.1875H13.8H15H16C16.3313 17.1875 16.6 16.9357 16.6 16.625C16.6 16.3143 16.3313 16.0625 16 16.0625H15H13.8Z" fill="#2C2D6F"/>
<path d="M14 12.2109C13.5139 12.2161 13.0608 12.232 12.6659 12.2793C12.0053 12.3586 11.2823 12.548 10.6848 13.0809C10.0874 13.6139 9.87508 14.2589 9.7863 14.8482C9.70646 15.3778 9.70656 16.0249 9.70667 16.7128V16.8705C9.70656 17.5585 9.70646 18.2055 9.7863 18.7351C9.84857 19.1486 9.97167 19.5895 10.246 20C10.2375 20 10.229 20 10.2204 20C2 20 2 18.1532 2 15.875C2 13.5968 5.68042 11.75 10.2204 11.75C11.5832 11.75 12.8685 11.9164 14 12.2109Z" fill="#2C2D6F"/>
<path d="M10 9.5C12.2091 9.5 14 7.82107 14 5.75C14 3.67893 12.2091 2 10 2C7.79086 2 6 3.67893 6 5.75C6 7.82107 7.79086 9.5 10 9.5Z" fill="#2C2D6F"/>
</svg>
